<svg version="1.1" id="Layer_1" xmlns="http://www.w3.org/2000/svg" xmlns:xlink="http://www.w3.org/1999/xlink" x="0px" y="0px"
	 width="100%" viewBox="0 0 966 504" enable-background="new 0 0 966 504" xml:space="preserve">
<path fill="#010000" opacity="1.000000" stroke="none" 
	d="
M966.000000,505.000000 
	C644.387817,505.000000 322.775604,505.000000 1.081705,505.000000 
	C1.081705,337.082947 1.081705,169.165848 1.081705,1.000000 
	C322.362671,1.000000 643.725403,1.000000 965.544067,1.462638 
	C966.000000,169.616852 966.000000,337.308411 966.000000,505.000000 
M39.990704,468.983521 
	C41.157024,468.997894 42.323349,469.024872 43.489670,469.024872 
	C337.133331,469.023407 630.776978,469.020325 924.420654,469.009979 
	C925.917786,469.009918 927.414917,468.906677 929.623352,468.399689 
	C929.825867,465.933380 930.205139,463.467072 930.205688,461.000732 
	C930.234192,325.185883 930.230835,189.371033 930.230957,53.556183 
	C930.230957,49.723419 930.134399,45.887337 930.263733,42.058910 
	C930.373779,38.802849 928.926636,37.494041 925.759583,37.752594 
	C924.435364,37.860699 923.094727,37.766865 921.761597,37.766869 
	C631.967712,37.767784 342.173798,37.768879 52.379906,37.769985 
	C48.880493,37.769997 45.377972,37.861477 41.882610,37.742565 
	C38.889969,37.640759 37.668262,38.923264 37.732780,41.898178 
	C37.841145,46.895042 37.763786,51.895939 37.763794,56.895142 
	C37.763981,191.876770 37.757442,326.858398 37.818695,461.839996 
	C37.819759,464.179352 38.637829,466.518280 39.990704,468.983521 
z"/>
<path fill="#313131" opacity="1.000000" stroke="none" 
	d="
M966.500000,505.000000 
	C966.000000,337.308411 966.000000,169.616852 966.000000,1.462638 
	C966.333313,2.333333 966.953796,3.665911 966.957336,5.000113 
	C967.016968,27.666622 967.000000,50.333332 967.000000,73.000000 
	C967.000000,217.000000 967.000000,361.000000 966.500000,505.000000 
z"/>
<path fill="#762724" opacity="1.000000" stroke="none" 
	d="
M39.074669,468.857422 
	C38.637829,466.518280 37.819759,464.179352 37.818695,461.839996 
	C37.757442,326.858398 37.763981,191.876770 37.763794,56.895142 
	C37.763786,51.895939 37.841145,46.895042 37.732780,41.898178 
	C37.668262,38.923264 38.889969,37.640759 41.882610,37.742565 
	C45.377972,37.861477 48.880493,37.769997 52.379906,37.769985 
	C342.173798,37.768879 631.967712,37.767784 921.761597,37.766869 
	C923.094727,37.766865 924.435364,37.860699 925.759583,37.752594 
	C928.926636,37.494041 930.373779,38.802849 930.263733,42.058910 
	C930.134399,45.887337 930.230957,49.723419 930.230957,53.556183 
	C930.230835,189.371033 930.234192,325.185883 930.205688,461.000732 
	C930.205139,463.467072 929.825867,465.933380 928.933289,468.403961 
	C926.262207,468.270233 924.281189,468.011444 922.300171,468.011322 
	C630.550659,467.993591 338.801086,467.994598 47.379349,467.750427 
	C50.015873,467.342377 52.324608,467.035583 54.633362,467.035400 
	C343.438446,467.013916 632.243530,467.015137 921.048584,467.014709 
	C928.980530,467.014709 928.983582,467.012482 928.983643,459.237030 
	C928.984009,323.083679 928.983521,186.930344 928.983154,50.777008 
	C928.983154,48.277260 928.856201,45.769638 929.012207,43.279705 
	C929.219299,39.973907 927.714600,38.744781 924.553040,38.985855 
	C922.896301,39.112183 921.221802,39.003769 919.555298,39.003750 
	C628.417114,39.000626 337.278992,38.997841 46.140823,38.994061 
	C38.989578,38.993969 38.993481,38.988846 38.993687,46.080433 
	C38.997635,183.733612 39.018162,321.386780 38.928898,459.039886 
	C38.925858,463.732422 39.104435,467.570801 44.554230,467.993713 
	C42.467491,468.280426 40.771080,468.568939 39.074669,468.857422 
z"/>
<path fill="#832D29" opacity="1.000000" stroke="none" 
	d="
M39.532684,468.920471 
	C40.771080,468.568939 42.467491,468.280426 44.905800,467.995972 
	C46.115650,467.998291 46.583607,467.996552 47.051567,467.994781 
	C338.801086,467.994598 630.550659,467.993591 922.300171,468.011322 
	C924.281189,468.011444 926.262207,468.270233 928.577637,468.629913 
	C927.414917,468.906677 925.917786,469.009918 924.420654,469.009979 
	C630.776978,469.020325 337.133331,469.023407 43.489670,469.024872 
	C42.323349,469.024872 41.157024,468.997894 39.532684,468.920471 
z"/>
<path fill="#95181C" opacity="1.000000" stroke="none" 
	d="
M47.379349,467.750427 
	C46.583607,467.996552 46.115650,467.998291 45.296120,467.997803 
	C39.104435,467.570801 38.925858,463.732422 38.928898,459.039886 
	C39.018162,321.386780 38.997635,183.733612 38.993687,46.080433 
	C38.993481,38.988846 38.989578,38.993969 46.140823,38.994061 
	C337.278992,38.997841 628.417114,39.000626 919.555298,39.003750 
	C921.221802,39.003769 922.896301,39.112183 924.553040,38.985855 
	C927.714600,38.744781 929.219299,39.973907 929.012207,43.279705 
	C928.856201,45.769638 928.983154,48.277260 928.983154,50.777008 
	C928.983521,186.930344 928.984009,323.083679 928.983643,459.237030 
	C928.983582,467.012482 928.980530,467.014709 921.048584,467.014709 
	C632.243530,467.015137 343.438446,467.013916 54.633362,467.035400 
	C52.324608,467.035583 50.015873,467.342377 47.379349,467.750427 
M130.967300,260.500000 
	C130.968674,302.315735 131.089920,344.132080 130.883774,385.946808 
	C130.834702,395.900574 129.954483,405.875732 128.949295,415.789581 
	C128.369339,421.509338 124.972855,425.761505 119.168365,427.142242 
	C113.856850,428.405701 108.431770,429.385620 103.000999,429.887939 
	C99.156311,430.243561 98.163811,432.179840 98.339478,435.430542 
	C98.511559,438.614899 99.969017,439.912201 103.450645,439.893555 
	C131.242813,439.744568 159.036331,439.750854 186.828751,439.868378 
	C190.261719,439.882904 191.714218,438.619385 191.963654,435.370575 
	C192.202026,432.265656 191.443985,430.176849 187.818344,429.965576 
	C185.000183,429.801361 182.196884,429.322479 179.396957,428.914825 
	C167.427002,427.171997 162.282196,422.382141 161.956558,410.365814 
	C161.280029,385.400330 161.348282,360.415161 161.014435,335.439362 
	C160.960144,331.377594 163.051102,329.484467 166.680908,329.382446 
	C172.992691,329.205139 179.329834,329.141754 185.629089,329.504242 
	C193.651871,329.965942 199.725540,333.988098 204.065430,340.742798 
	C209.460602,349.139954 214.992599,357.449493 220.360321,365.863953 
	C231.538559,383.386963 242.341995,401.112152 256.297272,416.738678 
	C270.498199,432.640350 288.454712,440.511383 309.044952,442.665131 
	C315.746948,443.366150 322.740112,441.640625 329.548370,440.664246 
	C330.893677,440.471313 332.001953,438.625732 333.219513,437.542297 
	C331.946472,436.599304 330.774750,435.041290 329.384155,434.812286 
	C319.741455,433.224274 311.246338,429.370972 304.178192,422.602325 
	C298.891632,417.539856 293.470947,412.574951 288.599457,407.128784 
	C266.847809,382.810760 250.133835,354.943115 232.952362,327.418518 
	C228.724930,320.646240 229.142227,319.959259 236.261917,316.369171 
	C256.187683,306.321747 271.003052,291.912048 275.645782,269.111053 
	C280.795959,243.818130 271.009033,220.463974 249.828537,207.501404 
	C238.521500,200.581421 225.978439,196.830658 212.966980,196.155136 
	C192.866074,195.111572 172.696533,194.953033 152.562347,195.129471 
	C137.260071,195.263535 121.968185,196.517242 106.669991,197.237152 
	C103.514404,197.385635 101.100548,198.158493 101.058739,202.008408 
	C101.020149,205.562531 102.640579,206.977386 106.176765,207.177460 
	C109.812737,207.383163 113.418999,208.185608 117.027412,208.791611 
	C124.496048,210.045914 128.349457,213.196640 128.985992,220.654236 
	C130.087982,233.565140 130.351898,246.547577 130.967300,260.500000 
M419.497559,237.985062 
	C403.315094,258.605011 394.197540,282.053528 392.478699,308.136292 
	C389.367798,355.342560 405.274628,394.379395 444.833069,421.588104 
	C477.121887,443.796722 513.516418,448.791718 551.358521,440.852478 
	C591.945984,432.337311 621.276733,408.564728 638.647827,370.881378 
	C652.047302,341.813416 653.500732,311.299072 645.671448,280.595215 
	C637.074036,246.879074 617.796265,220.789902 586.518860,204.629227 
	C561.709900,191.810760 535.037476,188.127319 507.476715,191.055298 
	C472.178680,194.805298 442.617706,209.692657 419.497559,237.985062 
M810.500122,438.824127 
	C822.148010,439.159729 833.798889,439.418793 845.441772,439.879608 
	C848.747375,440.010437 849.935730,438.501465 850.112854,435.527893 
	C850.286133,432.619019 850.083313,430.190521 846.212036,430.006836 
	C842.726807,429.841492 839.250610,429.365784 835.785889,428.909515 
	C825.028931,427.492889 820.800049,423.765869 818.885376,413.166870 
	C817.944885,407.960632 817.503967,402.596527 817.486694,397.301727 
	C817.324951,347.829132 817.197083,298.355835 817.331726,248.883484 
	C817.359314,238.768066 818.165222,228.615509 819.290405,218.555893 
	C820.066284,211.619827 824.406982,207.097046 831.557556,205.948959 
	C836.477905,205.158936 841.426575,204.426788 846.391357,204.078125 
	C849.227234,203.878998 850.128357,202.696930 850.214417,200.087158 
	C850.347839,196.037476 848.696777,194.656937 844.539856,194.761826 
	C826.395508,195.219635 808.243774,195.499847 790.093689,195.567047 
	C779.779602,195.605240 769.456299,195.260681 759.152161,194.772232 
	C755.353333,194.592178 754.487183,196.778152 754.264404,199.554520 
	C754.032471,202.444931 755.347107,203.940674 758.653442,204.127228 
	C763.784729,204.416779 768.924622,205.130554 773.975830,206.105362 
	C779.458557,207.163452 783.460571,210.510391 784.711792,216.024719 
	C785.880920,221.177261 786.860596,226.508682 786.880005,231.765213 
	C787.073792,284.236511 787.090820,336.708588 787.047241,389.180389 
	C787.040771,396.994446 786.852600,404.848450 786.048767,412.611511 
	C785.067810,422.084534 781.244019,426.105530 771.922241,428.240143 
	C767.726440,429.200928 763.377625,429.656647 759.072266,429.924286 
	C755.669250,430.135803 754.133240,431.751038 754.305969,434.910767 
	C754.478027,438.059296 755.699585,440.019135 759.578674,439.900299 
	C776.214478,439.390717 792.858826,439.157867 810.500122,438.824127 
z"/>
<path fill="#FDFCFB" opacity="1.000000" stroke="none" 
	d="
M130.967316,260.000000 
	C130.351898,246.547577 130.087982,233.565140 128.985992,220.654236 
	C128.349457,213.196640 124.496048,210.045914 117.027412,208.791611 
	C113.418999,208.185608 109.812737,207.383163 106.176765,207.177460 
	C102.640579,206.977386 101.020149,205.562531 101.058739,202.008408 
	C101.100548,198.158493 103.514404,197.385635 106.669991,197.237152 
	C121.968185,196.517242 137.260071,195.263535 152.562347,195.129471 
	C172.696533,194.953033 192.866074,195.111572 212.966980,196.155136 
	C225.978439,196.830658 238.521500,200.581421 249.828537,207.501404 
	C271.009033,220.463974 280.795959,243.818130 275.645782,269.111053 
	C271.003052,291.912048 256.187683,306.321747 236.261917,316.369171 
	C229.142227,319.959259 228.724930,320.646240 232.952362,327.418518 
	C250.133835,354.943115 266.847809,382.810760 288.599457,407.128784 
	C293.470947,412.574951 298.891632,417.539856 304.178192,422.602325 
	C311.246338,429.370972 319.741455,433.224274 329.384155,434.812286 
	C330.774750,435.041290 331.946472,436.599304 333.219513,437.542297 
	C332.001953,438.625732 330.893677,440.471313 329.548370,440.664246 
	C322.740112,441.640625 315.746948,443.366150 309.044952,442.665131 
	C288.454712,440.511383 270.498199,432.640350 256.297272,416.738678 
	C242.341995,401.112152 231.538559,383.386963 220.360321,365.863953 
	C214.992599,357.449493 209.460602,349.139954 204.065430,340.742798 
	C199.725540,333.988098 193.651871,329.965942 185.629089,329.504242 
	C179.329834,329.141754 172.992691,329.205139 166.680908,329.382446 
	C163.051102,329.484467 160.960144,331.377594 161.014435,335.439362 
	C161.348282,360.415161 161.280029,385.400330 161.956558,410.365814 
	C162.282196,422.382141 167.427002,427.171997 179.396957,428.914825 
	C182.196884,429.322479 185.000183,429.801361 187.818344,429.965576 
	C191.443985,430.176849 192.202026,432.265656 191.963654,435.370575 
	C191.714218,438.619385 190.261719,439.882904 186.828751,439.868378 
	C159.036331,439.750854 131.242813,439.744568 103.450645,439.893555 
	C99.969017,439.912201 98.511559,438.614899 98.339478,435.430542 
	C98.163811,432.179840 99.156311,430.243561 103.000999,429.887939 
	C108.431770,429.385620 113.856850,428.405701 119.168365,427.142242 
	C124.972855,425.761505 128.369339,421.509338 128.949295,415.789581 
	C129.954483,405.875732 130.834702,395.900574 130.883774,385.946808 
	C131.089920,344.132080 130.968674,302.315735 130.967316,260.000000 
M186.464005,318.021301 
	C193.419510,317.384430 200.462372,317.232910 207.310638,316.000214 
	C218.384918,314.006927 227.389603,308.328186 233.912369,298.953033 
	C241.280746,288.362518 243.265121,276.292572 243.308685,263.822632 
	C243.377060,244.250595 237.129120,227.432617 220.399551,215.930527 
	C205.682831,205.812332 188.902008,205.152344 171.894577,206.475784 
	C162.372757,207.216721 161.045013,208.806686 161.019653,218.202011 
	C160.971085,236.199081 160.993698,254.196365 161.008728,272.193542 
	C161.019577,285.191162 161.122864,298.189056 161.061523,311.186249 
	C161.043289,315.047485 162.373352,317.039124 166.529800,317.110840 
	C172.848694,317.219879 179.161270,317.694458 186.464005,318.021301 
z"/>
<path fill="#FDFBFB" opacity="1.000000" stroke="none" 
	d="
M419.724915,237.710510 
	C442.617706,209.692657 472.178680,194.805298 507.476715,191.055298 
	C535.037476,188.127319 561.709900,191.810760 586.518860,204.629227 
	C617.796265,220.789902 637.074036,246.879074 645.671448,280.595215 
	C653.500732,311.299072 652.047302,341.813416 638.647827,370.881378 
	C621.276733,408.564728 591.945984,432.337311 551.358521,440.852478 
	C513.516418,448.791718 477.121887,443.796722 444.833069,421.588104 
	C405.274628,394.379395 389.367798,355.342560 392.478699,308.136292 
	C394.197540,282.053528 403.315094,258.605011 419.724915,237.710510 
M522.147034,432.578857 
	C528.783569,432.217041 535.565308,432.610901 542.032410,431.367676 
	C577.323242,424.583466 598.416687,402.073792 607.838623,368.579529 
	C617.888184,332.854370 614.976685,297.257996 601.835022,262.762512 
	C584.807007,218.065704 547.918701,195.805710 501.618073,203.281891 
	C466.408691,208.967148 444.584167,231.381912 434.708771,264.897949 
	C424.084198,300.956512 426.766693,336.874603 441.074890,371.450867 
	C455.796021,407.025024 481.120941,429.741577 522.147034,432.578857 
z"/>
<path fill="#FDFCFB" opacity="1.000000" stroke="none" 
	d="
M810.000122,438.824127 
	C792.858826,439.157867 776.214478,439.390717 759.578674,439.900299 
	C755.699585,440.019135 754.478027,438.059296 754.305969,434.910767 
	C754.133240,431.751038 755.669250,430.135803 759.072266,429.924286 
	C763.377625,429.656647 767.726440,429.200928 771.922241,428.240143 
	C781.244019,426.105530 785.067810,422.084534 786.048767,412.611511 
	C786.852600,404.848450 787.040771,396.994446 787.047241,389.180389 
	C787.090820,336.708588 787.073792,284.236511 786.880005,231.765213 
	C786.860596,226.508682 785.880920,221.177261 784.711792,216.024719 
	C783.460571,210.510391 779.458557,207.163452 773.975830,206.105362 
	C768.924622,205.130554 763.784729,204.416779 758.653442,204.127228 
	C755.347107,203.940674 754.032471,202.444931 754.264404,199.554520 
	C754.487183,196.778152 755.353333,194.592178 759.152161,194.772232 
	C769.456299,195.260681 779.779602,195.605240 790.093689,195.567047 
	C808.243774,195.499847 826.395508,195.219635 844.539856,194.761826 
	C848.696777,194.656937 850.347839,196.037476 850.214417,200.087158 
	C850.128357,202.696930 849.227234,203.878998 846.391357,204.078125 
	C841.426575,204.426788 836.477905,205.158936 831.557556,205.948959 
	C824.406982,207.097046 820.066284,211.619827 819.290405,218.555893 
	C818.165222,228.615509 817.359314,238.768066 817.331726,248.883484 
	C817.197083,298.355835 817.324951,347.829132 817.486694,397.301727 
	C817.503967,402.596527 817.944885,407.960632 818.885376,413.166870 
	C820.800049,423.765869 825.028931,427.492889 835.785889,428.909515 
	C839.250610,429.365784 842.726807,429.841492 846.212036,430.006836 
	C850.083313,430.190521 850.286133,432.619019 850.112854,435.527893 
	C849.935730,438.501465 848.747375,440.010437 845.441772,439.879608 
	C833.798889,439.418793 822.148010,439.159729 810.000122,438.824127 
z"/>
<path fill="#95191D" opacity="1.000000" stroke="none" 
	d="
M185.970276,318.017548 
	C179.161270,317.694458 172.848694,317.219879 166.529800,317.110840 
	C162.373352,317.039124 161.043289,315.047485 161.061523,311.186249 
	C161.122864,298.189056 161.019577,285.191162 161.008728,272.193542 
	C160.993698,254.196365 160.971085,236.199081 161.019653,218.202011 
	C161.045013,208.806686 162.372757,207.216721 171.894577,206.475784 
	C188.902008,205.152344 205.682831,205.812332 220.399551,215.930527 
	C237.129120,227.432617 243.377060,244.250595 243.308685,263.822632 
	C243.265121,276.292572 241.280746,288.362518 233.912369,298.953033 
	C227.389603,308.328186 218.384918,314.006927 207.310638,316.000214 
	C200.462372,317.232910 193.419510,317.384430 185.970276,318.017548 
z"/>
<path fill="#95191D" opacity="1.000000" stroke="none" 
	d="
M521.693115,432.531311 
	C481.120941,429.741577 455.796021,407.025024 441.074890,371.450867 
	C426.766693,336.874603 424.084198,300.956512 434.708771,264.897949 
	C444.584167,231.381912 466.408691,208.967148 501.618073,203.281891 
	C547.918701,195.805710 584.807007,218.065704 601.835022,262.762512 
	C614.976685,297.257996 617.888184,332.854370 607.838623,368.579529 
	C598.416687,402.073792 577.323242,424.583466 542.032410,431.367676 
	C535.565308,432.610901 528.783569,432.217041 521.693115,432.531311 
z"/>
</svg>