<svg xmlns="http://www.w3.org/2000/svg" height="48" viewBox="0 -960 960 960" width="48"><path d="M639.412-404Q584-404 547.5-440.176 511-476.353 511-532.059q0-55.706 36.76-92.323Q584.52-661 640.176-661q55.241 0 91.532 36.794Q768-587.412 768-531.706T731.412-440q-36.589 36-92 36ZM388-149v-75.588q0-22.012 9.947-41.341Q407.895-285.257 426-294q46.14-32 101.555-48.5Q582.969-359 640.093-359 696-359 751-341.5T854-294q15.737 11.671 26.868 29.393Q892-246.885 892-225.43V-149H388ZM107-398v-73h308v73H107Zm0-349v-73h472v73H107Zm349 175H107v-73h379q-11 16-18.5 34.5T456-572Z"/></svg>